<?xml version="1.0" encoding="UTF-8" standalone="no"?>
<!-- Created with Inkscape (http://www.inkscape.org/) -->

<svg
   xmlns:dc="http://purl.org/dc/elements/1.1/"
   xmlns:cc="http://creativecommons.org/ns#"
   xmlns:rdf="http://www.w3.org/1999/02/22-rdf-syntax-ns#"
   xmlns:svg="http://www.w3.org/2000/svg"
   xmlns="http://www.w3.org/2000/svg"
   xmlns:sodipodi="http://sodipodi.sourceforge.net/DTD/sodipodi-0.dtd"
   xmlns:inkscape="http://www.inkscape.org/namespaces/inkscape"
   id="svg2467"
   height="24"
   width="24"
   version="1.0"
   inkscape:version="0.48.4 r9939"
   sodipodi:docname="sync-client-updating.svg">
  <defs
     id="defs3223" />
  <sodipodi:namedview
     pagecolor="#ffffff"
     bordercolor="#666666"
     borderopacity="1"
     objecttolerance="10"
     gridtolerance="10"
     guidetolerance="10"
     inkscape:pageopacity="0"
     inkscape:pageshadow="2"
     inkscape:window-width="1680"
     inkscape:window-height="991"
     id="namedview3221"
     showgrid="false"
     inkscape:zoom="27.812867"
     inkscape:cx="8.9678104"
     inkscape:cy="13.250864"
     inkscape:window-x="0"
     inkscape:window-y="27"
     inkscape:window-maximized="1"
     inkscape:current-layer="svg2467"
     inkscape:snap-grids="true" />
  <metadata
     id="metadata8">
    <rdf:RDF>
      <cc:Work
         rdf:about="">
        <dc:format>image/svg+xml</dc:format>
        <dc:type
           rdf:resource="http://purl.org/dc/dcmitype/StillImage" />
        <dc:title />
      </cc:Work>
    </rdf:RDF>
  </metadata>
  <path
     id="rect3193-52"
     d="m13.5 6c-1.6895 1e-7 -3.1368 1.0625-3.9062 2.5938-0.4333-0.3605-0.9866-0.5938-1.5938-0.5938-1.38 1e-7 -2.5 1.12-2.5 2.5 0 0.30993 0.05301 0.60104 0.15625 0.875-1.5695 0.701-2.6562 2.289-2.6562 4.125 0 2.493 2.007 4.5 4.5 4.5h9c2.493 0 4.5-2.007 4.5-4.5 0-1.975-1.269-3.641-3.031-4.25 0.004-0.085 0.031-0.163 0.031-0.25 0-2.76-2.016-5-4.5-5zm-1.5 4c1.4826 0 2.4128 0.55829 3 1.25v-1.25h1v2 1h-1-2v-1h1.3125c-0.435-0.557-1.142-1-2.312-1-3 0-3 3-3 3h-1s0-4 4-4zm3 4h1s0 4-4 4c-1.4826 0-2.4128-0.55829-3-1.25v1.25h-1v-2-1h1 2v1h-1.3125c0.43535 0.55672 1.1425 1 2.3125 1 3 0 3-3 3-3z"
     style="opacity:.3;fill-rule:evenodd;fill:#fff" />
  <path
     style="fill:#bebebe;fill-opacity:1"
     d="M 4.4004107,21.389655 C 2.1893558,20.729177 0.49283896,18.547957 0.12205582,15.888953 -0.16249462,13.848355 0.44483435,11.914499 1.8550341,10.370807 2.3136644,9.8687604 2.8806923,9.3698168 3.1150959,9.2620417 L 3.5412844,9.0660863 3.4643954,8.0480557 C 3.3697629,6.795097 3.5610257,6.089761 4.2124524,5.2893821 5.2682335,3.9921919 6.8244543,3.6572828 8.098811,4.453012 8.4635665,4.6807714 8.7790808,4.86712 8.7999539,4.86712 c 0.020874,0 0.1908969,-0.2896945 0.3778307,-0.6437654 0.4930398,-0.933867 1.7415604,-2.180139 2.6438864,-2.6391254 1.044992,-0.5315559 2.672268,-0.64543435 3.724787,-0.2606644 2.484687,0.9083275 4.334332,3.7275374 4.334332,6.606345 l 0,0.8271614 0.767656,0.4168982 c 2.201166,1.1954106 3.581759,4.0747596 3.214971,6.7051086 -0.377235,2.705262 -2.074244,4.863544 -4.338934,5.518315 -1.12882,0.326367 -14.0276964,0.319767 -15.1240723,-0.0077 l 0,5e-6 z m 3.6472659,-3.312104 c 0,-0.456703 0.030073,-0.830369 0.066829,-0.830369 0.036756,0 0.346739,0.237164 0.6888509,0.527035 0.9123486,0.773029 1.8523425,1.028261 3.5123405,0.953696 1.5434,-0.06934 2.304383,-0.358165 3.27883,-1.244497 0.70651,-0.642624 1.384058,-2.034789 1.638191,-3.366005 0.278086,-1.456684 0.299846,-1.399521 -0.532787,-1.399521 l -0.732626,0 -0.09644,0.717138 c -0.12746,0.947836 -0.704284,2.231906 -1.22003,2.715942 -0.753682,0.707345 -1.540459,0.997329 -2.688672,0.990962 -0.853438,-0.0047 -1.188155,-0.08087 -1.788112,-0.406681 -0.4059696,-0.220476 -0.813155,-0.50121 -0.9048549,-0.62386 -0.143963,-0.192547 -0.053026,-0.222997 0.6660022,-0.222997 l 0.8327317,0 0,-0.830369 0,-0.830371 -2.1081988,0 -2.1081984,0 0,2.239483 c 0,1.231715 0.040804,2.284775 0.090675,2.340133 0.049871,0.05537 0.3865029,0.100655 0.7480704,0.100655 l 0.6573951,0 0,-0.83037 z m 0.055417,-5.834718 C 8.2590352,11.160339 8.7290312,10.177985 9.4217617,9.4866396 10.156114,8.7537574 10.856011,8.4905532 12.0705,8.4905532 c 1.038113,0 1.729658,0.2510288 2.33921,0.8491242 l 0.506613,0.4970919 -0.850081,0.00633 -0.85008,0.00633 0,0.7548812 0,0.754882 2.108198,0 2.108199,0 0,-2.2646456 0,-2.2646451 -0.748069,0 -0.748071,0 0,0.8293725 0,0.8293718 -0.603414,-0.5112667 C 14.328467,7.1261507 13.623899,6.9050188 11.924042,6.9073721 10.567327,6.9092462 10.348879,6.9497638 9.5799547,7.3421119 8.0792319,8.1078627 7.038838,9.6963032 6.6981611,11.74194 c -0.080643,0.484237 -0.1466253,0.935893 -0.1466253,1.003678 0,0.06779 0.328809,0.123256 0.7306869,0.123256 l 0.7306868,0 0.090184,-0.626035 z"
     id="path3225"
     inkscape:connector-curvature="0" />
</svg>
